<?xml version="1.0" standalone="no"?>
<!DOCTYPE svg PUBLIC "-//W3C//DTD SVG 20010904//EN"
 "http://www.w3.org/TR/2001/REC-SVG-20010904/DTD/svg10.dtd">
<svg version="1.0" xmlns="http://www.w3.org/2000/svg"
 width="4096.000000pt" height="4096.000000pt" viewBox="0 0 4096.000000 4096.000000"
 preserveAspectRatio="xMidYMid meet">

<g transform="translate(0.000000,4096.000000) scale(0.100000,-0.100000)"
fill="#000000" stroke="none">
<path d="M1080 34543 c-115 -17 -270 -68 -377 -122 -350 -178 -595 -500 -679
-891 -26 -119 -26 -381 0 -500 35 -162 105 -330 189 -455 23 -33 4373 -5836
9668 -12895 7200 -9600 9645 -12853 9700 -12907 160 -155 299 -240 502 -308
322 -107 681 -77 988 81 115 59 204 125 303 222 60 59 2305 3045 9705 12912
5295 7059 9645 12862 9668 12895 59 87 109 193 148 308 196 588 -73 1246 -624
1531 -307 158 -666 188 -988 81 -203 -68 -342 -153 -502 -308 -55 -54 -2372
-3136 -9183 -12217 -5010 -6680 -9113 -12145 -9118 -12145 -5 0 -4108 5465
-9118 12145 -7001 9334 -9128 12163 -9188 12222 -99 97 -188 163 -303 222
-242 125 -522 171 -791 129z"/>
</g>
</svg>
