<svg width="80" height="83" viewBox="0 0 80 83" fill="none" xmlns="http://www.w3.org/2000/svg">
<path d="M44.7458 2C37.7161 3.40595 30.3908 12.0494 30.3516 19.185C30.3128 26.2439 38.0756 29.9316 44.2134 30.2193C49.8658 30.4843 56.7829 25.5296 57.9283 19.8827C59.4633 12.3149 51.308 6.80625 44.8193 5.69036C37.8728 4.49574 27.7507 6.7381 25.3944 14.3379C23.1921 21.4412 27.2411 29.8286 34.5377 31.9452C44.128 34.7271 52.4503 30.0044 60.2784 25.1336" stroke="#164F64" stroke-width="3" stroke-linecap="round"/>
<path d="M59.2872 53.8862C60.3067 48.1769 55.0994 46.4714 50.6764 45.9914C39.6309 44.7926 29.1619 47.4801 20.4007 54.3268C17.2009 56.8274 13.0064 60.1386 12.0836 64.3514C11.0605 69.0221 14.341 73.1551 18.069 75.4959C23.693 79.0272 30.7238 80.6827 37.2919 81.059C44.4784 81.4707 52.2989 81.1951 59.1587 78.8191C64.1277 77.098 69.962 74.1277 72.6533 69.3453C75.3582 64.5389 73.5751 58.6754 70.3767 54.6206C61.2305 43.0254 45.5343 40.798 31.7289 42.301C24.781 43.0574 18.0105 45.318 12.5794 49.847C8.75962 53.0322 5.45026 57.9616 7.76904 63.0295C10.1274 68.1839 17.5936 70.2845 22.457 71.8423C28.9128 73.91 35.3893 74.6084 42.1023 75.0369" stroke="#164F64" stroke-width="3" stroke-linecap="round"/>
</svg>
