<svg width="82" height="80" viewBox="0 0 82 80" fill="none" xmlns="http://www.w3.org/2000/svg">
<path d="M1.9229 24.3765C6.04214 24.5556 10.1673 24.3765 14.2923 24.3765C26.8462 24.3765 39.5053 24.494 52.0421 23.7863C52.7596 23.7458 54.8073 23.7889 54.1721 23.4527C53.4105 23.0494 51.6684 23.1551 50.9258 23.119C45.0087 22.8314 39.0558 22.9926 33.1416 23.2474C25.4837 23.5772 17.8508 24.1785 10.2248 24.9411C7.56731 25.2068 -0.338669 25.8141 2.30785 26.1729C5.07468 26.5481 8.36806 25.6211 11.0845 25.3004C16.3661 24.6769 21.6353 24.0322 26.944 23.6836C33.4087 23.2591 52.8364 22.7598 46.3578 22.7598C43.1716 22.7598 40.02 23.2926 36.8498 23.5553C30.4005 24.0898 23.9332 24.3725 17.4873 24.9539C14.804 25.196 12.1199 25.4648 9.44207 25.7623C8.83183 25.8301 6.44016 25.8161 5.83646 26.3269C5.11713 26.9355 7.70467 26.6061 8.64653 26.6348C10.9465 26.705 13.2491 26.6862 15.5498 26.6862" stroke="#164F64" stroke-width="2" stroke-linecap="round"/>
<path d="M2.3866 27.6108C1.80231 26.6927 2.52843 27.7959 2.61756 28.2267C3.12517 30.6802 2.95319 33.409 3.02816 35.8999C3.33741 46.1738 3.62875 56.4478 3.95202 66.7208C4.03381 69.32 4.00335 71.9221 4.00335 74.5222C4.00335 75.8779 3.9644 72.7254 3.95202 72.4949C3.63919 66.6684 3.39475 60.85 3.18214 55.0186C2.94058 48.3929 2.31876 41.6431 2.73304 35.0145C2.83995 33.3039 2.90038 31.5833 2.83569 29.8691C2.8348 29.8454 2.73313 28.0982 2.48925 28.586C1.9262 29.7121 2.15563 31.2639 2.15563 32.4611C2.15563 37.0477 2.52446 41.6177 2.5919 46.2034C2.694 53.1464 2.64492 60.0996 2.50208 67.0415C2.43607 70.2495 2.32007 73.4045 2.84853 76.5752" stroke="#164F64" stroke-width="2" stroke-linecap="round"/>
<path d="M55.7387 24.1465C55.321 24.6164 55.2664 24.9704 55.2768 25.5836C55.327 28.5478 55.5395 31.4938 55.4564 34.4629C55.1328 46.0261 51.9979 57.3283 51.8252 68.9022C51.8055 70.2187 51.8015 71.5376 51.8123 72.8543C51.8152 73.2076 51.6339 74.0817 51.9406 73.9064C52.527 73.5714 52.5399 70.7996 52.6207 70.1982C53.3917 64.4582 54.0745 58.6744 54.3529 52.8887C54.6697 46.3081 54.674 39.7904 54.122 33.2311C53.9701 31.4268 54.0457 29.5482 53.7114 27.7649C53.6053 27.1993 53.377 27.4659 53.4547 27.8932C54.5852 34.1109 54.9507 40.5047 55.1485 46.8323C55.3223 52.3932 54.9664 57.8732 54.725 63.4232C54.5835 66.6799 54.3411 69.9395 55.0458 73.1109" stroke="#164F64" stroke-width="2" stroke-linecap="round"/>
<path d="M7.00559 76.1124C7.18748 76.1626 8.61212 76.2844 8.648 76.3562C8.68711 76.4344 7.73624 76.6887 8.49402 76.8053C9.96967 77.0323 11.5005 77.0467 12.985 76.9336C17.4989 76.5895 21.9873 75.9804 26.5092 75.7018C34.5437 75.2068 42.6241 75.4195 50.6706 75.4195C55.3969 75.4195 41.2182 75.4195 36.492 75.4195C26.4478 75.4195 16.4375 75.8428 6.42818 76.677C6.23327 76.6932 1.6758 77.1689 1.69341 77.2159C1.83799 77.6014 6.12866 76.6212 6.41534 76.5743C16.3406 74.951 26.5113 74.8596 36.5433 74.6239C45.2589 74.4192 53.9575 74.1138 62.668 73.8027" stroke="#164F64" stroke-width="2" stroke-linecap="round"/>
<path d="M57.1237 72.8789C55.1343 75.3658 61.9109 68.6356 63.9244 66.1681C67.9873 61.1891 72.2978 56.7392 77.0123 52.3873C78.2658 51.2302 79.541 50.0673 80.7078 48.8201C81.2223 48.2701 80.9945 48.3263 80.5025 48.6918C78.3347 50.3022 76.5235 52.3664 74.5744 54.2221C70.8089 57.8072 67.3073 61.6006 63.6934 65.3341C61.4471 67.6547 59.1566 69.9337 56.8671 72.2117C56.1278 72.9473 54.5028 74.0147 54.0186 74.9832C53.6324 75.7557 55.5122 74.1007 56.1742 73.5461C57.6076 72.3454 58.8353 70.988 60.1263 69.6454" stroke="#164F64" stroke-width="2" stroke-linecap="round"/>
<path d="M52.5054 26.2236C51.615 25.8279 52.6947 24.877 53.07 24.6068C54.7108 23.4254 56.2351 22.0311 57.7791 20.7318C61.7118 17.4221 73.6046 7.68937 69.2631 10.441C67.2299 11.7297 65.4062 13.5929 63.643 15.2143C60.9098 17.7275 58.182 20.3299 55.9057 23.2724C54.0031 25.7319 56.8196 22.7583 57.5096 22.1432C61.165 18.8847 64.8834 15.6972 68.6729 12.5967" stroke="#164F64" stroke-width="2" stroke-linecap="round"/>
<path d="M1 23.9147C3.42604 20.8597 6.5815 18.1654 9.23772 15.3049C12.4086 11.8901 15.6547 8.48972 18.6559 4.92435C19.0533 4.45226 20.9704 2.03942 19.0794 3.42308C17.1536 4.8322 15.5293 6.64058 13.8955 8.36315C11.3714 11.0244 8.91162 13.6759 6.5688 16.4982C5.05348 18.3237 3.23212 20.1608 2.07783 22.2595C1.58074 23.1633 3.17973 21.735 3.30964 21.6051" stroke="#164F64" stroke-width="2" stroke-linecap="round"/>
<path d="M70.9824 12.8291C70.9824 16.0866 71.9918 19.3344 72.5992 22.504C74.0511 30.0812 74.3933 37.6633 74.7933 45.3438C74.8732 46.8774 74.9088 48.4023 74.9088 49.9374C74.9088 50.8103 74.7002 48.8257 74.6907 48.6542C74.5076 45.3593 74.4887 42.0926 74.4341 38.7869C74.3328 32.6588 73.1265 26.5946 73.0611 20.4766C73.0346 17.996 73.0611 10.5537 73.0611 13.0344C73.0611 17.5357 73.7686 21.9672 74.0363 26.456C74.4944 34.1385 74.6822 41.8823 73.985 49.5524" stroke="#164F64" stroke-width="2" stroke-linecap="round"/>
<path d="M24.3275 4.74414C22.9623 5.21897 26.7772 4.9751 27.1247 4.9751C33.065 4.9751 39.0096 4.90643 44.9474 5.10342C52.0962 5.34058 59.1946 6.22386 66.3373 6.54053C67.0551 6.57235 69.204 6.64396 68.4929 6.54053C66.3566 6.22979 64.1247 6.36089 61.9746 6.36089C49.7283 6.36089 37.5434 7.51571 25.3026 7.51571C16.8455 7.51571 42.2002 6.59185 50.6574 6.59185" stroke="#164F64" stroke-width="2" stroke-linecap="round"/>
<path d="M20.6317 24.8379C21.065 24.9462 20.8626 26.125 20.8755 26.429C21.004 29.4474 21.0937 32.4378 21.0937 35.4622C21.0937 40.3655 20.6317 45.2349 20.6317 50.1413C20.6317 52.3491 20.2562 45.7397 20.1826 43.5332C19.9897 37.7446 20.6317 32.0005 20.6317 26.2237" stroke="#164F64" stroke-width="2" stroke-linecap="round"/>
<path d="M33.5664 25.0687C33.5664 25.9611 33.1014 28.8495 32.989 30.2654C32.8537 31.9703 32.6426 33.6998 32.6426 35.4107C32.6426 35.645 32.8199 33.8889 32.8735 33.4732C33.2447 30.5965 33.3213 27.705 33.7461 24.8377C34.0248 22.9563 33.3571 27.0051 33.3355 27.4168C33.1896 30.1884 32.8735 32.9128 32.8735 35.693" stroke="#164F64" stroke-width="2" stroke-linecap="round"/>
<path d="M35.4131 24.8381C35.1011 24.8381 34.7847 24.9034 34.5406 25.1204C33.9563 25.6398 35.3407 23.7719 35.8237 23.1572C38.1287 20.2236 40.6798 17.3851 43.2659 14.7014C45.5553 12.3256 48.7698 9.97777 50.1435 6.87425C50.6868 5.64683 49.0352 7.90941 48.8604 8.15738C48.122 9.20488 47.678 9.89579 46.6534 10.7108C43.6649 13.088 40.8624 15.8264 38.4157 18.7561C36.8024 20.6877 35.5278 22.8375 34.0273 24.8381" stroke="#164F64" stroke-width="2" stroke-linecap="round"/>
<path d="M20.6328 23.6833C23.4335 21.7444 25.6523 18.3934 27.9338 15.9076C29.8851 13.7815 31.834 11.5714 33.5668 9.26092C34.3027 8.27968 34.9937 7.25177 35.5942 6.18139C35.7362 5.92817 35.9004 5.28488 36.1074 5.0779C37.9613 3.22397 32.9854 9.30097 31.2315 11.2498C28.8689 13.8749 26.5953 16.6333 24.4309 19.4233C23.3645 20.798 22.2053 22.2926 21.5567 23.9143" stroke="#164F64" stroke-width="2" stroke-linecap="round"/>
</svg>
