<svg width="80" height="82" viewBox="0 0 80 82" fill="none" xmlns="http://www.w3.org/2000/svg">
<path d="M26.9847 1.29498C27.097 0.396281 28.4923 1.82067 28.6033 2.00311C29.7573 3.89897 30.5853 5.86718 30.9188 8.10658C31.3976 11.3215 30.7677 14.6321 29.9297 17.7283C28.9219 21.4513 26.6147 24.7888 26.5801 28.7437C26.5516 31.9911 27.534 34.4678 30.6378 35.96C34.5612 37.8463 38.6706 34.9074 41.3385 32.2395C42.7634 30.8146 43.5371 29.1655 44.0924 27.2375C44.8905 24.4667 45.7124 20.7683 44.9242 17.9306C43.8259 13.9767 40.4544 9.94719 37.3033 7.47713C34.9673 5.64603 32.264 4.08916 29.3002 3.58799C26.7516 3.15702 24.5832 3.85787 22.1289 4.32985" stroke="#164F64" stroke-width="2" stroke-linecap="round"/>
<path d="M30.6265 38.5234C30.4066 38.9908 30.4242 39.3617 30.4242 39.8723C30.4242 41.5658 30.4242 43.2593 30.4242 44.9529C30.4242 48.5816 30.794 52.1838 30.8288 55.811C30.8821 61.3697 31.1188 66.9258 31.5482 72.4691C31.742 74.9714 31.8236 78.5203 33.4478 80.6183C34.4959 81.9721 35.326 79.3438 35.4823 78.7187C36.3562 75.2229 36.9222 71.5902 37.5168 68.0404C38.9278 59.6158 40.5117 51.2223 41.7544 42.7723" stroke="#164F64" stroke-width="2" stroke-linecap="round"/>
<path d="M30.6057 49.9251C29.4307 49.6593 27.9326 51.0907 26.9978 51.6097C19.4168 55.8184 11.8419 60.4233 5.57733 66.4704C4.52546 67.4857 -1.66801 73.0603 2.8745 73.4765C5.4344 73.7111 8.41958 71.3076 10.4146 70.1001C15.6765 66.9152 21.0159 63.9167 26.4377 61.0136" stroke="#164F64" stroke-width="2" stroke-linecap="round"/>
<path d="M42.9688 41.76C45.4522 39.5131 48.5441 37.8354 51.2641 35.8926" stroke="#164F64" stroke-width="2" stroke-linecap="round"/>
<path d="M40.3379 53.4951C41.5953 53.4951 42.6928 52.9543 43.8336 52.461C48.0502 50.6376 52.2234 48.9093 56.3216 46.8184" stroke="#164F64" stroke-width="2" stroke-linecap="round"/>
<path d="M72.5067 18.0879C75.0666 18.4079 71.9727 23.6897 71.1691 24.4499C70.2494 25.3199 69.0537 25.8417 67.9319 26.3945C66.0385 27.3274 64.1935 28.3511 62.323 29.3282C59.6421 30.7286 56.9887 31.5101 54.7358 33.6444C50.7 37.4678 54.8103 43.4277 58.7935 45.5142C60.4109 46.3613 62.4253 46.1528 64.054 45.4692C67.1254 44.1802 70.1737 41.9244 72.4055 39.4669C74.5677 37.0861 76.4284 34.2826 77.5311 31.2503C78.9161 27.4415 78.9623 23.8638 78.5764 19.9088" stroke="#164F64" stroke-width="2" stroke-linecap="round"/>
<path d="M73.0391 18.0059C73.7316 18.0751 74.3647 18.61 75.0438 18.773C75.4363 18.8672 75.7803 18.9614 76.1511 19.0987C76.849 19.3572 77.3158 19.9317 77.9169 20.3182C78.1034 20.438 78.0462 20.7349 78.2173 20.8718C78.3014 20.9391 78.486 21.2497 78.5068 21.3639C78.5499 21.6012 78.6375 21.8353 78.742 22.0442C78.8712 22.3026 78.8944 22.4728 78.9663 22.7607" stroke="#164F64" stroke-width="2" stroke-linecap="round"/>
</svg>
