<svg width="18" height="18" viewBox="0 0 18 18" fill="none" xmlns="http://www.w3.org/2000/svg">
<path fill-rule="evenodd" clip-rule="evenodd" d="M5.625 0C2.5184 0 0 2.5184 0 5.625V12.375C0 15.4816 2.5184 18 5.625 18H12.375C15.4816 18 18 15.4816 18 12.375V5.625C18 2.5184 15.4816 0 12.375 0H5.625ZM2.8125 5.0625C2.91114 9.97888 5.44829 12.9375 9.62892 12.9375H9.87145V10.1249C11.3933 10.2822 12.5295 11.4412 12.993 12.9375H15.1875C14.592 10.6991 13.0479 9.46148 12.0882 8.98868C13.0479 8.40389 14.4043 6.98624 14.724 5.0625H12.7282C12.3085 6.62615 11.0625 8.0438 9.87145 8.17846V5.0625H7.84156V10.519C6.60673 10.2066 4.99589 8.67397 4.92988 5.0625H2.8125Z" fill="#EFF0F0"/>
</svg>
