<svg width="18" height="18" viewBox="0 0 18 18" fill="none" xmlns="http://www.w3.org/2000/svg">
<path d="M10.6559 5.87699C10.6527 4.95844 9.9202 4.22718 9.00228 4.22634C8.07666 4.22536 7.33759 4.96991 7.34473 5.89685C7.35159 6.8119 8.09039 7.53799 9.01083 7.53463C9.92847 7.53142 10.659 6.7954 10.6559 5.87699Z" fill="#EFF0F0"/>
<path fill-rule="evenodd" clip-rule="evenodd" d="M5 0C2.23858 0 0 2.23858 0 5V13C0 15.7614 2.23858 18 5 18H13C15.7614 18 18 15.7614 18 13V5C18 2.23858 15.7614 0 13 0H5ZM8.97511 9.25998C7.12569 9.25368 5.60917 7.72248 5.61995 5.87251C5.6306 4.00212 7.1481 2.49484 9.01573 2.50001C10.8871 2.50505 12.3892 4.03401 12.3799 5.92385C12.3703 7.77004 10.8433 9.26641 8.97511 9.25998ZM8.36057 11.7838C7.35356 11.6822 6.4456 11.4422 5.66824 10.8538C5.649 10.8392 5.62963 10.8247 5.61026 10.8102C5.53262 10.7521 5.45455 10.6937 5.38418 10.6283C5.04393 10.3121 5.00965 9.94992 5.27888 9.5767C5.5092 9.25732 5.89584 9.17188 6.29772 9.35527C6.37554 9.39081 6.44968 9.43518 6.5207 9.48283C7.96944 10.4461 9.95964 10.4727 11.4138 9.52615C11.5579 9.41925 11.7119 9.3321 11.8904 9.2876C12.2374 9.20137 12.5611 9.32472 12.7473 9.61856C12.9601 9.95413 12.9574 10.2817 12.6952 10.5422C12.2931 10.9416 11.8094 11.2306 11.2721 11.4323C10.7639 11.6229 10.2074 11.7189 9.65653 11.7826L9.71231 11.8416C9.76038 11.8925 9.79204 11.926 9.8308 11.9637C10.1033 12.2287 10.3763 12.4933 10.6492 12.7578C11.1254 13.2194 11.6016 13.681 12.0755 14.1446C12.3295 14.3932 12.3826 14.7014 12.2427 14.9905C12.0898 15.3064 11.7475 15.5143 11.4119 15.4921C11.1993 15.4778 11.0334 15.3754 10.8861 15.2318C10.7011 15.0517 10.515 14.8726 10.3289 14.6936C9.94712 14.3264 9.56536 13.9591 9.19357 13.5826C9.03263 13.4198 8.95522 13.4506 8.81319 13.592C8.24534 14.1577 7.66823 14.7147 7.08773 15.2685C6.82707 15.5172 6.51689 15.562 6.2146 15.4199C5.89326 15.2692 5.68878 14.9518 5.70456 14.6328C5.71545 14.417 5.8251 14.2522 5.97815 14.1044C6.57449 13.5281 7.16951 12.9507 7.76442 12.3734L8.195 11.9556C8.22506 11.9263 8.25388 11.8958 8.28819 11.8596C8.30961 11.837 8.33324 11.812 8.36057 11.7838Z" fill="#EFF0F0"/>
</svg>
